<svg width="155" height="38" viewBox="0 0 155 38" fill="none" xmlns="http://www.w3.org/2000/svg">
<g id="Frame">
<path id="Vector" d="M26.4518 35.9652C24.4506 37.9073 22.239 37.6045 20.1345 36.6889C17.897 35.7547 15.8478 35.6957 13.4848 36.6889C10.5385 37.959 8.97666 37.5898 7.20441 35.9652C-2.8125 25.6566 -1.33563 9.95372 10.0437 9.36297C12.8055 9.51066 14.7365 10.8878 16.361 11.0023C18.7757 10.5112 21.0907 9.10452 23.679 9.28912C26.7878 9.54019 29.1102 10.766 30.6609 12.9739C24.2697 16.8138 25.7872 25.2394 31.6578 27.6061C30.4837 30.6928 28.9736 33.7388 26.4481 35.9947L26.4518 35.9652ZM16.1432 9.2522C15.8441 4.6702 19.5548 0.900469 23.8266 0.53125C24.4137 5.81477 19.0231 9.76911 16.1432 9.2522ZM36.6829 36.9215H41.4827V11.87H41.6489L51.8799 36.9215H55.7862L66.0173 11.87H66.1835V36.9215H70.9833V2.97548H64.9096L53.8995 30.0725H53.7592L42.775 2.97548H36.6829V36.9215ZM84.253 37.4532C88.0154 37.4532 90.5334 35.7363 91.8257 33.2441H91.9439V36.9621H97.0502V12.2133H91.9439V26.6572C91.9439 30.5155 89.6399 33.0779 86.0622 33.0779C82.5325 33.0779 80.7934 31.0066 80.7934 27.2664V12.2133H75.713V28.2559C75.713 33.9493 78.8181 37.4532 84.253 37.4532ZM110.353 37.4532C116.176 37.4532 120.403 34.3554 120.403 29.8472V29.8251C120.403 26.2806 118.48 24.2831 113.429 23.109L109.415 22.1933C106.761 21.5583 105.753 20.5282 105.753 18.9996V18.9774C105.753 17.0058 107.466 15.7135 110.191 15.7135C113.056 15.7135 114.747 17.2163 115.05 19.3762L115.072 19.5423H119.838L119.816 19.2617C119.558 15.06 116.035 11.7961 110.191 11.7961C104.508 11.7961 100.657 14.8237 100.657 19.2396V19.2617C100.657 22.8542 102.984 25.1065 107.676 26.1883L111.716 27.1039C114.37 27.739 115.26 28.6547 115.26 30.2497V30.2718C115.26 32.2693 113.429 33.5357 110.375 33.5357C107.252 33.5357 105.561 32.1992 105.092 29.9211L105.044 29.6848H100.022L100.045 29.8952C100.561 34.3997 104.18 37.4532 110.353 37.4532ZM126.259 8.24423C127.935 8.24423 129.231 6.92243 129.231 5.32002C129.231 3.69176 127.935 2.36996 126.259 2.36996C124.609 2.36996 123.287 3.69176 123.287 5.32002C123.287 6.92243 124.609 8.24423 126.259 8.24423ZM123.711 36.8846H128.807V12.0657H123.711V36.8846ZM143.616 37.4532C149.557 37.4532 153.692 33.6502 154.231 28.6916L154.253 28.5254H149.368L149.346 28.7137C148.737 31.3906 146.74 33.1997 143.616 33.1997C139.695 33.1997 137.088 30.0282 137.088 24.6265V24.6043C137.088 19.3208 139.647 16.0311 143.594 16.0311C146.906 16.0311 148.785 18.0728 149.324 20.4949L149.372 20.6832H154.209L154.187 20.5171C153.766 15.8686 149.911 11.7814 143.55 11.7814C136.505 11.7814 131.901 16.7363 131.901 24.5563V24.5785C131.897 32.4982 136.405 37.4532 143.616 37.4532Z" fill="#1D1D1F"/>
</g>
</svg>
